PathFileType  4	(X/Y/Z) C:\Users\antoi\Documents\MyRepositories\mobilecap\ResultsAnalysis
DataRate	CameraRate	NumFrames	NumMarkers	Units	OrigDataRate	OrigDataStartFrame	OrigNumFrames
100.0	100.0	7	51	mm	100.0	98	130
Frame#	Time	r_knee			r_shank_antsup			r_ankle			r_calc			r_5meta			r_toe			L_knee			L_shank_antsup			L_ankle			L_calc			L_5meta			L_toe			r_sh2			r_sh3			r_sh4			L_sh2			L_sh3			r_thigh1			r_thigh2			r_thigh3			r_thigh4			r_thigh5			L_thigh1			L_thigh2			L_thigh3			L_thigh4			r.ASIS			r.PSIS			L.ASIS			L.PSIS			C7			R_Shoulder			L_Shoulder			R_Sternum			L_Sternum			R_humerus			R_elbow_med			R_elbow_lat			R_forearm			R_wrist_radius			R_wrist_ulna			L_humerus			L_elbow_med			L_elbow_lat			L_forearm			L_wrist_radius			L_wrist_ulna			R_HJC			L_HJC			R_HJC_reg			L_HJC_reg			
		X1	Y1	Z1	X2	Y2	Z2	X3	Y3	Z3	X4	Y4	Z4	X5	Y5	Z5	X6	Y6	Z6	X7	Y7	Z7	X8	Y8	Z8	X9	Y9	Z9	X10	Y10	Z10	X11	Y11	Z11	X12	Y12	Z12	X13	Y13	Z13	X14	Y14	Z14	X15	Y15	Z15	X16	Y16	Z16	X17	Y17	Z17	X18	Y18	Z18	X19	Y19	Z19	X20	Y20	Z20	X21	Y21	Z21	X22	Y22	Z22	X23	Y23	Z23	X24	Y24	Z24	X25	Y25	Z25	X26	Y26	Z26	X27	Y27	Z27	X28	Y28	Z28	X29	Y29	Z29	X30	Y30	Z30	X31	Y31	Z31	X32	Y32	Z32	X33	Y33	Z33	X34	Y34	Z34	X35	Y35	Z35	X36	Y36	Z36	X37	Y37	Z37	X38	Y38	Z38	X39	Y39	Z39	X40	Y40	Z40	X41	Y41	Z41	X42	Y42	Z42	X43	Y43	Z43	X44	Y44	Z44	X45	Y45	Z45	X46	Y46	Z46	X47	Y47	Z47	X48	Y48	Z48	X49	Y49	Z49	X50	Y50	Z50	X51	Y51	Z51	

98	0.97000000	1227.71028	486.09182	-91.04536	1232.10278	416.33400	-64.89167	1231.64950	110.62113	-115.55448	1181.11024	73.90978	-173.70549	1328.12369	62.06983	-67.19488	1381.77166	92.47216	-106.56962	957.20300	466.29364	-359.11813	965.81822	397.59437	-357.54095	862.83478	103.16678	-317.75151	786.05912	79.20146	-272.88801	945.74759	38.65074	-335.58305	998.76927	57.94116	-279.91423	1235.80307	304.09565	-66.11946	1162.57934	412.97280	-94.21063	1160.71003	297.10431	-102.38958	880.22557	423.27650	-373.11852	856.74538	304.93934	-369.39190	1157.05982	793.42506	-105.28646	1215.28636	697.39224	-91.54325	1180.34096	657.70541	-48.22661	1069.25024	751.51145	-46.03596	1121.75422	646.99326	-50.58875	1083.61845	734.27169	-400.52308	1060.23850	597.07016	-383.63924	968.87746	750.16220	-416.40572	951.97254	611.18530	-386.88246	1112.95103	912.87658	-116.07925	930.57470	914.41690	-184.19366	1111.77057	904.92449	-373.24054	925.81433	917.69374	-289.55129	984.52725	1392.12697	-257.08624	1020.06082	1336.71078	-96.15341	1061.78654	1337.49243	-410.07693	1095.18236	1306.97702	-223.67059	1099.18796	1306.40412	-268.17545	995.75432	1100.97634	-7.97550	958.05662	997.48348	-65.91340	959.49200	1019.88564	3.41140	995.91299	910.00736	43.16055	1007.61148	793.61107	63.64176	964.56040	787.15912	55.77073	1127.69811	1223.91248	-455.32844	1128.27882	998.53037	-448.29957	1147.51691	1019.32697	-503.02875	1247.97240	968.22218	-501.74105	1331.96523	877.00801	-479.09876	1314.43963	851.47676	-501.20172	1052.98886	832.09719	-140.28920	1051.64353	831.47256	-340.57961	1062.68714	817.74285	-152.91033	1055.02808	823.01558	-322.46073	
99	0.98000000	1237.51392	481.36534	-92.63160	1245.26256	412.63514	-66.41998	1268.63764	107.60735	-115.89939	1221.85568	67.07724	-174.61155	1367.69416	65.98089	-66.20573	1419.83734	100.21661	-104.86416	963.41122	466.10792	-359.00243	970.95075	397.49869	-357.56305	863.76062	104.38464	-317.87797	786.79581	80.96214	-273.02175	946.07933	38.69135	-335.64754	999.19931	57.55490	-280.05766	1257.15613	301.02729	-67.38356	1176.53895	404.08163	-96.88012	1183.34250	288.82747	-104.94498	885.78640	424.41773	-372.96329	860.51169	306.53456	-369.27137	1170.84073	789.53685	-104.18005	1226.48697	691.78795	-91.91375	1190.97193	652.43453	-48.75551	1081.85162	748.49043	-45.59799	1132.07768	643.04281	-51.03333	1093.85125	732.32237	-400.38516	1068.47293	595.56106	-383.62553	979.33424	750.07862	-415.71266	960.53546	611.32647	-386.38042	1127.87691	911.10719	-115.41473	944.80973	912.78713	-182.69151	1124.71679	902.65700	-372.60236	939.26765	916.34167	-288.02124	997.56215	1390.02999	-257.18604	1033.19813	1335.02318	-96.12947	1074.58739	1335.50874	-410.08182	1108.48240	1305.25046	-223.72308	1112.36917	1304.62761	-268.27220	1007.98446	1099.59790	-7.54657	970.48468	996.06793	-65.50765	971.25273	1018.72890	3.71643	1006.02018	908.72946	44.34798	1016.34409	792.18089	65.46755	973.28661	786.24872	56.97515	1141.90420	1223.00108	-454.91345	1146.23090	997.61758	-448.13058	1165.51087	1018.81224	-502.69323	1267.38200	970.62310	-499.87157	1353.80223	882.12810	-475.96764	1337.53933	856.18300	-498.17803	1067.27844	830.38601	-139.30276	1064.68222	829.49421	-339.57775	1077.29721	815.44510	-152.11080	1068.37912	821.16530	-321.62991	
100	0.99000000	1246.90701	476.36728	-94.01807	1258.14815	408.79668	-67.91874	1303.94099	106.10541	-116.39450	1260.83462	61.90736	-175.47847	1405.38909	71.24628	-65.95742	1455.54774	108.99010	-104.24822	969.99288	465.82735	-358.84866	976.55428	397.35573	-357.57533	864.81012	105.71478	-318.01972	787.63663	82.90806	-273.19961	946.43983	38.72233	-335.72784	999.62645	57.11942	-280.22586	1277.72515	298.29765	-68.72167	1190.47205	395.53213	-99.19993	1205.38674	281.30932	-107.29307	891.85565	425.56879	-372.86545	864.66275	308.13240	-369.22506	1184.59776	785.32160	-102.90524	1237.57729	685.87282	-91.95738	1201.41695	646.94139	-49.01969	1094.44684	745.35754	-44.96263	1142.29809	638.87145	-51.33334	1104.34383	730.36179	-400.32616	1077.01147	594.02413	-383.66550	990.06513	749.88029	-415.14041	969.43971	611.34118	-386.01818	1143.09719	909.16997	-114.74673	959.22227	910.99444	-181.08135	1137.77854	900.34367	-371.99704	952.89508	914.73597	-286.40032	1010.65949	1387.75790	-257.17850	1046.42078	1333.20499	-96.00183	1087.43114	1333.31872	-409.98655	1121.87414	1303.39991	-223.70552	1125.62075	1302.71247	-268.29058	1020.48948	1098.07387	-7.01429	983.27943	994.46813	-64.99326	983.38494	1017.38586	4.12937	1016.55527	907.30318	45.60847	1025.41168	790.68534	67.36187	982.48484	785.19665	58.25373	1156.10769	1221.85241	-454.41626	1163.90001	996.54899	-447.90354	1183.20198	1018.11343	-502.29219	1286.36484	972.78267	-498.02970	1375.10473	886.97689	-472.83652	1359.98053	860.66466	-495.18920	1081.86247	828.50677	-138.31965	1077.89537	827.40500	-338.56854	1092.07429	813.12466	-151.23144	1081.89128	819.14670	-320.74828	
101	1.00000000	1256.18810	471.36853	-95.15996	1271.05297	405.05869	-69.35431	1337.10394	105.85996	-117.04953	1297.31302	58.19885	-176.24485	1440.78091	77.42959	-66.61521	1488.52070	118.21272	-104.96748	977.00499	465.46751	-358.63293	982.68495	397.14074	-357.56896	866.01791	107.17661	-318.17465	788.60843	85.08057	-273.40484	946.82790	38.75182	-335.81769	1000.06400	56.64248	-280.38576	1297.59097	295.99361	-70.07367	1204.50091	387.61853	-101.02128	1226.71872	274.67348	-109.23457	898.50178	426.73323	-372.79287	869.26683	309.75717	-369.22218	1198.43934	780.97887	-101.57897	1248.79685	679.93130	-91.73719	1211.97436	641.50610	-49.03295	1107.25127	742.28621	-44.13686	1152.66290	634.72674	-51.45451	1115.15046	728.39845	-400.35884	1085.93330	592.45492	-383.78397	1001.09950	749.56495	-414.68274	978.72033	611.25178	-385.75390	1158.51128	907.07992	-114.14366	973.79637	909.04913	-179.35371	1150.95518	898.02017	-371.48007	966.70789	912.87751	-284.66928	1023.82036	1385.35542	-257.02924	1059.72858	1331.25587	-95.75740	1100.33548	1330.95440	-409.77515	1135.35912	1301.44633	-223.60182	1138.94687	1300.68816	-268.21328	1033.27985	1096.39476	-6.37617	996.44070	992.68247	-64.36017	995.91173	1015.84343	4.64828	1027.54863	905.73059	46.95889	1034.85769	789.11218	69.32554	992.17108	784.00789	59.61254	1170.30686	1220.47833	-453.82074	1181.27588	995.32417	-447.63379	1200.58882	1017.23086	-501.83599	1304.91126	974.68864	-496.21534	1395.83914	891.53204	-469.70529	1381.73960	864.88249	-492.25992	1096.72236	826.47087	-137.37101	1091.26398	825.23062	-337.58136	1106.95259	810.82124	-150.34326	1095.54230	816.98449	-319.87972	
102	1.01000000	1265.73456	466.64835	-96.06149	1284.27540	401.65890	-70.71256	1367.69377	106.44309	-117.88257	1330.56591	55.61136	-176.82854	1473.44172	83.96070	-68.28595	1518.44051	127.18583	-107.17898	984.53890	465.04674	-358.34922	989.40271	396.82465	-357.54041	867.42229	108.79335	-318.34044	789.73970	87.53191	-273.61521	947.24718	38.79993	-335.89987	1000.54254	56.13926	-280.50814	1316.82569	294.16114	-71.39508	1218.73282	380.61706	-102.24037	1247.20920	269.00958	-110.60555	905.79403	427.90719	-372.71370	874.39146	311.43059	-369.22527	1212.49567	776.73788	-100.31897	1260.41029	674.26501	-91.34330	1222.95784	636.39854	-48.84715	1120.46235	739.42472	-43.17249	1163.46800	630.83461	-51.38838	1126.30998	726.44081	-400.46572	1095.32584	590.85524	-384.00334	1012.47087	749.13630	-414.31142	988.43214	611.06807	-385.54062	1173.97640	904.85796	-113.66837	988.51040	906.97429	-177.50464	1164.24738	895.70935	-371.09163	980.70534	910.79466	-282.81241	1037.05266	1382.88051	-256.70525	1073.13520	1329.18700	-95.37785	1113.31778	1328.46648	-409.43183	1148.94789	1299.42449	-223.38944	1152.35732	1298.59767	-268.02206	1046.37025	1094.56154	-5.63161	1009.96887	990.71742	-63.59861	1008.85872	1014.09599	5.26930	1039.01302	904.01992	48.40659	1044.75499	787.43694	71.34939	1002.36532	782.69383	61.05349	1184.48859	1218.91044	-453.11618	1198.35370	993.95602	-447.32826	1217.67376	1016.18728	-501.32970	1323.01098	976.33977	-494.42238	1415.97343	895.76887	-466.59612	1402.80225	868.81245	-489.40642	1111.80375	824.29808	-136.47801	1104.75457	822.99677	-336.63613	1121.85556	808.56096	-149.52061	1109.28898	814.71311	-319.08252	
103	1.02000000	1275.97571	462.45979	-96.77794	1298.08483	398.77589	-72.00217	1395.31399	107.30958	-118.91929	1359.93865	53.70801	-177.14361	1502.97102	90.17032	-71.00595	1545.06154	135.14603	-110.92942	992.71243	464.57942	-358.01726	996.77191	396.38253	-357.48983	869.06058	110.59505	-318.51358	791.06379	90.32256	-273.81113	947.70763	38.89309	-335.95034	1001.09258	55.62314	-280.57757	1335.47779	292.76811	-72.67072	1233.26277	374.75444	-102.80977	1266.73058	264.35702	-111.29906	913.80162	429.08066	-372.61089	880.09642	313.16753	-369.20657	1226.89016	772.82669	-99.21783	1272.67033	669.16100	-90.87873	1234.66995	631.85268	-48.53206	1134.22875	736.87113	-42.14871	1175.03388	627.37316	-51.14122	1137.83677	724.49856	-400.60560	1105.27021	589.23708	-384.33370	1024.20779	748.60605	-413.97981	998.64410	610.78486	-385.33219	1189.35970	902.54105	-113.35868	1003.34540	904.80912	-175.54412	1177.65862	893.42602	-370.84910	994.87674	908.54047	-280.82734	1050.37014	1380.39851	-256.17992	1086.66615	1327.02472	-94.84233	1126.39126	1325.92209	-408.94129	1162.66008	1297.38232	-223.04355	1165.86908	1296.49379	-267.69996	1059.78101	1092.59143	-4.78001	1023.86514	988.59329	-62.70413	1022.24428	1012.15567	5.98984	1050.94590	902.18961	49.94720	1055.18624	785.64020	73.41781	1013.08931	781.26952	62.57035	1198.62832	1217.20182	-452.30107	1215.12658	992.47437	-446.98275	1234.45300	1015.02846	-500.77189	1340.65253	977.74764	-492.64447	1435.47142	899.66084	-463.54817	1423.15151	872.43888	-486.64639	1127.03964	822.02511	-135.64806	1118.33559	820.73125	-335.73968	1136.72609	806.36347	-148.81519	1123.08668	812.37441	-318.39218	
104	1.03000000	1287.33125	458.99085	-97.40031	1312.68268	396.48205	-73.25228	1419.63219	107.90104	-120.18505	1384.92561	52.05475	-177.13264	1529.03260	95.34103	-74.73702	1568.22450	141.33867	-116.13719	1001.64558	464.06734	-357.68138	1004.85262	395.79651	-357.42301	870.96629	112.61650	-318.69309	792.62073	93.51426	-273.98418	948.22528	39.05503	-335.94770	1001.72463	55.09726	-280.59444	1353.56584	291.68739	-73.92144	1248.16611	370.17169	-102.74273	1285.16930	260.69143	-111.28380	922.58991	430.23970	-372.49198	886.42893	314.97711	-369.16122	1241.71544	769.44019	-98.32939	1285.77844	664.85434	-90.45103	1247.37243	628.04465	-48.15866	1148.64101	734.66760	-41.14367	1187.66491	624.45992	-50.72407	1149.72281	722.58078	-400.72717	1115.82893	587.62115	-384.76330	1036.32754	747.99151	-413.62422	1009.42542	610.38710	-385.08629	1204.59775	900.19367	-113.21006	1018.29376	902.60741	-173.50331	1191.20003	891.18337	-370.74119	1009.21090	906.18458	-278.73309	1063.79089	1377.97347	-255.43669	1100.35322	1324.80955	-94.13379	1139.56024	1323.40034	-408.29171	1176.52011	1295.37437	-222.54385	1179.50450	1294.43174	-267.23452	1073.53473	1090.51825	-3.81977	1038.12908	986.34811	-61.68042	1036.07007	1010.06063	6.81152	1063.33940	900.27087	51.56578	1066.22014	783.72328	75.51206	1024.36123	779.75536	64.14763	1212.69543	1215.42481	-451.38426	1231.57965	990.92558	-446.58295	1250.90940	1013.81717	-500.15683	1357.82248	978.93521	-490.87748	1454.29384	903.18179	-460.60825	1442.76139	875.74861	-484.00573	1142.38212	819.71326	-134.87172	1132.00038	818.46552	-334.88292	1151.55784	804.24960	-148.23479	1136.92130	810.01477	-317.80978	
